<svg xmlns="http://www.w3.org/2000/svg" width="390" height="844" viewBox="0 0 390 844" font-family="SF Pro Text, -apple-system, Arial" ><g id="statusbar"><text x="20" y="24" font-size="13" font-weight="600" text-anchor="start" fill="#000">9:41</text><rect x="324" y="10" width="18" height="10" rx="2" ry="2" stroke="#000" fill="none" stroke-width="1"/><rect x="298" y="12" width="14" height="6" rx="1" ry="1" stroke="#000" fill="none" stroke-width="1"/><line x1="278" y1="21" x2="290" y2="21" stroke="#000" stroke-width="1"/></g><g id="navbar"><text x="195.0" y="62" font-size="17" font-weight="600" text-anchor="middle" fill="#000">Game Title</text><text x="16" y="62" font-size="16" font-weight="400" text-anchor="start" fill="#000">‹ Back</text><line x1="0" y1="76" x2="390" y2="76" stroke="#000" stroke-width="1"/></g><text x="16" y="100" font-size="12" font-weight="400" text-anchor="start" fill="#444">Series</text><text x="16" y="122" font-size="15" font-weight="600" text-anchor="start" fill="#000">Metal Gear</text><line x1="16" y1="128" x2="374" y2="128" stroke="#000" stroke-width="1"/><text x="16" y="140" font-size="12" font-weight="400" text-anchor="start" fill="#444">Genre</text><text x="16" y="162" font-size="15" font-weight="600" text-anchor="start" fill="#000">Action / Stealth</text><line x1="16" y1="168" x2="374" y2="168" stroke="#000" stroke-width="1"/><text x="16" y="180" font-size="12" font-weight="400" text-anchor="start" fill="#444">Publisher</text><text x="16" y="202" font-size="15" font-weight="600" text-anchor="start" fill="#000">Konami</text><line x1="16" y1="208" x2="374" y2="208" stroke="#000" stroke-width="1"/><text x="16" y="220" font-size="12" font-weight="400" text-anchor="start" fill="#444">Developer</text><text x="16" y="242" font-size="15" font-weight="600" text-anchor="start" fill="#000">Kojima Productions</text><line x1="16" y1="248" x2="374" y2="248" stroke="#000" stroke-width="1"/><text x="16" y="260" font-size="12" font-weight="400" text-anchor="start" fill="#444">Mode</text><text x="16" y="282" font-size="15" font-weight="600" text-anchor="start" fill="#000">Single-player</text><line x1="16" y1="288" x2="374" y2="288" stroke="#000" stroke-width="1"/><text x="16" y="310" font-size="12" font-weight="400" text-anchor="start" fill="#444">Platforms</text><rect x="16" y="320" width="86" height="28" rx="14" ry="14" stroke="#000" fill="none" stroke-width="1"/><text x="28" y="339" font-size="12" font-weight="400" text-anchor="start" fill="#000">PS2 (Disc)</text><rect x="140" y="320" width="79" height="28" rx="14" ry="14" stroke="#000" fill="none" stroke-width="1"/><text x="152" y="339" font-size="12" font-weight="400" text-anchor="start" fill="#000">PS3 (PSN)</text><rect x="260" y="320" width="86" height="28" rx="14" ry="14" stroke="#000" fill="none" stroke-width="1"/><text x="272" y="339" font-size="12" font-weight="400" text-anchor="start" fill="#000">PC (Steam)</text><rect x="16" y="704" width="171.0" height="48" rx="10" ry="10" stroke="#000" fill="#ddd" stroke-width="1"/><text x="101.5" y="733.0" font-size="15" font-weight="700" text-anchor="middle" fill="#000">Edit</text><rect x="203.0" y="704" width="171.0" height="48" rx="10" ry="10" stroke="#000" fill="none" stroke-width="1"/><text x="288.5" y="733.0" font-size="15" font-weight="700" text-anchor="middle" fill="#000">Delete</text><g id="tabbar"><line x1="0" y1="761" x2="390" y2="761" stroke="#000" stroke-width="1"/><text x="65" y="801" font-size="12" font-weight="700" text-anchor="middle" fill="#000">Library</text><rect x="55" y="775" width="20" height="20" rx="4" ry="4" stroke="#000" fill="none" stroke-width="1"/><text x="195.0" y="801" font-size="12" font-weight="400" text-anchor="middle" fill="#000">Properties</text><rect x="185.0" y="775" width="20" height="20" rx="4" ry="4" stroke="#000" fill="none" stroke-width="1"/><text x="325" y="801" font-size="12" font-weight="400" text-anchor="middle" fill="#000">Settings</text><rect x="315" y="775" width="20" height="20" rx="4" ry="4" stroke="#000" fill="none" stroke-width="1"/></g></svg>