<svg xmlns="http://www.w3.org/2000/svg" width="390" height="844" viewBox="0 0 390 844" font-family="SF Pro Text, -apple-system, Arial" ><g id="statusbar"><text x="20" y="24" font-size="13" font-weight="600" text-anchor="start" fill="#000">9:41</text><rect x="324" y="10" width="18" height="10" rx="2" ry="2" stroke="#000" fill="none" stroke-width="1"/><rect x="298" y="12" width="14" height="6" rx="1" ry="1" stroke="#000" fill="none" stroke-width="1"/><line x1="278" y1="21" x2="290" y2="21" stroke="#000" stroke-width="1"/></g><g id="navbar"><text x="195.0" y="62" font-size="17" font-weight="600" text-anchor="middle" fill="#000">Add Game</text><text x="16" y="62" font-size="16" font-weight="400" text-anchor="start" fill="#000">‹ Back</text><line x1="0" y1="76" x2="390" y2="76" stroke="#000" stroke-width="1"/></g><text x="16" y="96" font-size="12" font-weight="400" text-anchor="start" fill="#444">Title</text><rect x="16" y="104" width="358" height="40" rx="8" ry="8" stroke="#000" fill="none" stroke-width="1"/><text x="28" y="130" font-size="14" font-weight="400" text-anchor="start" fill="#666">Enter game title</text><text x="16" y="160" font-size="12" font-weight="400" text-anchor="start" fill="#444">Series</text><rect x="16" y="168" width="358" height="40" rx="8" ry="8" stroke="#000" fill="none" stroke-width="1"/><text x="28" y="194" font-size="14" font-weight="400" text-anchor="start" fill="#666">Select or add new…</text><text x="16" y="224" font-size="12" font-weight="400" text-anchor="start" fill="#444">Genre</text><rect x="16" y="232" width="358" height="40" rx="8" ry="8" stroke="#000" fill="none" stroke-width="1"/><text x="28" y="258" font-size="14" font-weight="400" text-anchor="start" fill="#666">Select…</text><text x="16" y="288" font-size="12" font-weight="400" text-anchor="start" fill="#444">Publisher</text><rect x="16" y="296" width="358" height="40" rx="8" ry="8" stroke="#000" fill="none" stroke-width="1"/><text x="28" y="322" font-size="14" font-weight="400" text-anchor="start" fill="#666">Select…</text><text x="16" y="352" font-size="12" font-weight="400" text-anchor="start" fill="#444">Developer</text><rect x="16" y="360" width="358" height="40" rx="8" ry="8" stroke="#000" fill="none" stroke-width="1"/><text x="28" y="386" font-size="14" font-weight="400" text-anchor="start" fill="#666">Select…</text><text x="16" y="416" font-size="12" font-weight="400" text-anchor="start" fill="#444">Mode</text><rect x="16" y="426" width="107" height="28" rx="14" ry="14" stroke="#000" fill="none" stroke-width="1"/><text x="28" y="445" font-size="12" font-weight="400" text-anchor="start" fill="#000">Single-player</text><rect x="152" y="426" width="93" height="28" rx="14" ry="14" stroke="#000" fill="none" stroke-width="1"/><text x="164" y="445" font-size="12" font-weight="400" text-anchor="start" fill="#000">Multiplayer</text><text x="16" y="472" font-size="12" font-weight="400" text-anchor="start" fill="#444">Platforms (System + Format)</text><rect x="16" y="480" width="358" height="84" rx="8" ry="8" stroke="#000" fill="none" stroke-width="1"/><text x="28" y="508" font-size="14" font-weight="400" text-anchor="start" fill="#000">System: Select…</text><text x="28" y="536" font-size="14" font-weight="400" text-anchor="start" fill="#000">Format: Select…</text><rect x="16" y="572" width="140" height="40" rx="10" ry="10" stroke="#000" fill="none" stroke-width="1"/><text x="86.0" y="597.0" font-size="15" font-weight="700" text-anchor="middle" fill="#000">+ Add Platform</text><rect x="16" y="744" width="358" height="56" rx="10" ry="10" stroke="#000" fill="#ddd" stroke-width="1"/><text x="195.0" y="777.0" font-size="15" font-weight="700" text-anchor="middle" fill="#000">Save</text></svg>