<svg xmlns="http://www.w3.org/2000/svg" width="390" height="844" viewBox="0 0 390 844" font-family="SF Pro Text, -apple-system, Arial" ><g id="statusbar"><text x="20" y="24" font-size="13" font-weight="600" text-anchor="start" fill="#000">9:41</text><rect x="324" y="10" width="18" height="10" rx="2" ry="2" stroke="#000" fill="none" stroke-width="1"/><rect x="298" y="12" width="14" height="6" rx="1" ry="1" stroke="#000" fill="none" stroke-width="1"/><line x1="278" y1="21" x2="290" y2="21" stroke="#000" stroke-width="1"/></g><g id="navbar"><text x="195.0" y="62" font-size="17" font-weight="600" text-anchor="middle" fill="#000">Add Game</text><text x="16" y="62" font-size="16" font-weight="400" text-anchor="start" fill="#000">‹ Back</text><line x1="0" y1="76" x2="390" y2="76" stroke="#000" stroke-width="1"/></g><text x="16" y="96" font-size="12" font-weight="400" text-anchor="start" fill="#444">Title</text><rect x="16" y="104" width="358" height="40" rx="8" ry="8" stroke="#000" fill="none" stroke-width="1"/><text x="28" y="130" font-size="14" font-weight="400" text-anchor="start" fill="#666">Enter game title</text><text x="16" y="160" font-size="12" font-weight="400" text-anchor="start" fill="#444">Series</text><rect x="16" y="168" width="358" height="74" rx="8" ry="8" stroke="#000" fill="none" stroke-width="1"/><rect x="28" y="180" width="119" height="28" rx="14" ry="14" stroke="#000" fill="none" stroke-width="1"/><text x="40" y="199" font-size="12" font-weight="400" text-anchor="start" fill="#000">Final Fantasy</text><text x="133" y="199" font-size="12" font-weight="700" text-anchor="middle" fill="#000">×</text><rect x="155" y="180" width="147" height="28" rx="14" ry="14" stroke="#000" fill="none" stroke-width="1"/><text x="167" y="199" font-size="12" font-weight="400" text-anchor="start" fill="#000">Compilation of FF</text><text x="288" y="199" font-size="12" font-weight="700" text-anchor="middle" fill="#000">×</text><rect x="28" y="214" width="84" height="28" rx="14" ry="14" stroke="#000" fill="none" stroke-width="1"/><text x="40" y="233" font-size="12" font-weight="400" text-anchor="start" fill="#000">Mainline</text><text x="98" y="233" font-size="12" font-weight="700" text-anchor="middle" fill="#000">×</text><text x="28" y="256" font-size="12" font-weight="400" text-anchor="start" fill="#666">+ Add or search…</text><text x="16" y="256" font-size="12" font-weight="400" text-anchor="start" fill="#444">Genre</text><rect x="16" y="264" width="358" height="74" rx="8" ry="8" stroke="#000" fill="none" stroke-width="1"/><rect x="28" y="276" width="70" height="28" rx="14" ry="14" stroke="#000" fill="none" stroke-width="1"/><text x="40" y="295" font-size="12" font-weight="400" text-anchor="start" fill="#000">Action</text><text x="84" y="295" font-size="12" font-weight="700" text-anchor="middle" fill="#000">×</text><rect x="106" y="276" width="49" height="28" rx="14" ry="14" stroke="#000" fill="none" stroke-width="1"/><text x="118" y="295" font-size="12" font-weight="400" text-anchor="start" fill="#000">RPG</text><text x="141" y="295" font-size="12" font-weight="700" text-anchor="middle" fill="#000">×</text><rect x="163" y="276" width="77" height="28" rx="14" ry="14" stroke="#000" fill="none" stroke-width="1"/><text x="175" y="295" font-size="12" font-weight="400" text-anchor="start" fill="#000">Stealth</text><text x="226" y="295" font-size="12" font-weight="700" text-anchor="middle" fill="#000">×</text><text x="28" y="318" font-size="12" font-weight="400" text-anchor="start" fill="#666">+ Add or search…</text><text x="16" y="352" font-size="12" font-weight="400" text-anchor="start" fill="#444">Publisher</text><rect x="16" y="360" width="358" height="74" rx="8" ry="8" stroke="#000" fill="none" stroke-width="1"/><rect x="28" y="372" width="105" height="28" rx="14" ry="14" stroke="#000" fill="none" stroke-width="1"/><text x="40" y="391" font-size="12" font-weight="400" text-anchor="start" fill="#000">Square Enix</text><text x="119" y="391" font-size="12" font-weight="700" text-anchor="middle" fill="#000">×</text><rect x="141" y="372" width="56" height="28" rx="14" ry="14" stroke="#000" fill="none" stroke-width="1"/><text x="153" y="391" font-size="12" font-weight="400" text-anchor="start" fill="#000">Sony</text><text x="183" y="391" font-size="12" font-weight="700" text-anchor="middle" fill="#000">×</text><text x="28" y="414" font-size="12" font-weight="400" text-anchor="start" fill="#666">+ Add or search…</text><text x="16" y="448" font-size="12" font-weight="400" text-anchor="start" fill="#444">Developer</text><rect x="16" y="456" width="358" height="74" rx="8" ry="8" stroke="#000" fill="none" stroke-width="1"/><rect x="28" y="468" width="112" height="28" rx="14" ry="14" stroke="#000" fill="none" stroke-width="1"/><text x="40" y="487" font-size="12" font-weight="400" text-anchor="start" fill="#000">FromSoftware</text><text x="126" y="487" font-size="12" font-weight="700" text-anchor="middle" fill="#000">×</text><rect x="148" y="468" width="154" height="28" rx="14" ry="14" stroke="#000" fill="none" stroke-width="1"/><text x="160" y="487" font-size="12" font-weight="400" text-anchor="start" fill="#000">Kojima Productions</text><text x="288" y="487" font-size="12" font-weight="700" text-anchor="middle" fill="#000">×</text><text x="28" y="510" font-size="12" font-weight="400" text-anchor="start" fill="#666">+ Add or search…</text><text x="16" y="548" font-size="12" font-weight="400" text-anchor="start" fill="#444">Mode</text><rect x="16" y="556" width="358" height="50" rx="8" ry="8" stroke="#000" fill="none" stroke-width="1"/><rect x="28" y="564" width="119" height="28" rx="14" ry="14" stroke="#000" fill="none" stroke-width="1"/><text x="40" y="583" font-size="12" font-weight="400" text-anchor="start" fill="#000">Single-player</text><text x="133" y="583" font-size="12" font-weight="700" text-anchor="middle" fill="#000">×</text><rect x="166" y="564" width="105" height="28" rx="14" ry="14" stroke="#000" fill="none" stroke-width="1"/><text x="178" y="583" font-size="12" font-weight="400" text-anchor="start" fill="#000">Multiplayer</text><text x="257" y="583" font-size="12" font-weight="700" text-anchor="middle" fill="#000">×</text><text x="16" y="620" font-size="12" font-weight="400" text-anchor="start" fill="#444">Platforms (System + Format)</text><rect x="16" y="628" width="358" height="84" rx="8" ry="8" stroke="#000" fill="none" stroke-width="1"/><text x="28" y="656" font-size="14" font-weight="400" text-anchor="start" fill="#000">System: PlayStation 2</text><text x="28" y="684" font-size="14" font-weight="400" text-anchor="start" fill="#000">Format: Disc</text><rect x="16" y="724" width="358" height="84" rx="8" ry="8" stroke="#000" fill="none" stroke-width="1"/><text x="28" y="752" font-size="14" font-weight="400" text-anchor="start" fill="#000">System: PC</text><text x="28" y="780" font-size="14" font-weight="400" text-anchor="start" fill="#000">Format: Steam</text><rect x="16" y="744" width="358" height="56" rx="10" ry="10" stroke="#000" fill="#ddd" stroke-width="1"/><text x="195.0" y="777.0" font-size="15" font-weight="700" text-anchor="middle" fill="#000">Save</text></svg>