<svg xmlns="http://www.w3.org/2000/svg" width="390" height="844" viewBox="0 0 390 844" font-family="SF Pro Text, -apple-system, Arial" ><g id="statusbar"><text x="20" y="24" font-size="13" font-weight="600" text-anchor="start" fill="#000">9:41</text><rect x="324" y="10" width="18" height="10" rx="2" ry="2" stroke="#000" fill="none" stroke-width="1"/><rect x="298" y="12" width="14" height="6" rx="1" ry="1" stroke="#000" fill="none" stroke-width="1"/><line x1="278" y1="21" x2="290" y2="21" stroke="#000" stroke-width="1"/></g><g id="navbar"><text x="195.0" y="62" font-size="17" font-weight="600" text-anchor="middle" fill="#000">Properties</text><text x="16" y="62" font-size="16" font-weight="400" text-anchor="start" fill="#000">‹ Back</text><line x1="0" y1="76" x2="390" y2="76" stroke="#000" stroke-width="1"/></g><rect x="16" y="96" width="58" height="28" rx="14" ry="14" stroke="#000" fill="none" stroke-width="1"/><text x="28" y="115" font-size="12" font-weight="400" text-anchor="start" fill="#000">Series</text><rect x="86" y="96" width="51" height="28" rx="14" ry="14" stroke="#000" fill="none" stroke-width="1"/><text x="98" y="115" font-size="12" font-weight="400" text-anchor="start" fill="#000">Genre</text><rect x="149" y="96" width="79" height="28" rx="14" ry="14" stroke="#000" fill="none" stroke-width="1"/><text x="161" y="115" font-size="12" font-weight="400" text-anchor="start" fill="#000">Publisher</text><rect x="240" y="96" width="79" height="28" rx="14" ry="14" stroke="#000" fill="none" stroke-width="1"/><text x="252" y="115" font-size="12" font-weight="400" text-anchor="start" fill="#000">Developer</text><rect x="331" y="96" width="44" height="28" rx="14" ry="14" stroke="#000" fill="none" stroke-width="1"/><text x="343" y="115" font-size="12" font-weight="400" text-anchor="start" fill="#000">Mode</text><rect x="387" y="96" width="58" height="28" rx="14" ry="14" stroke="#000" fill="none" stroke-width="1"/><text x="399" y="115" font-size="12" font-weight="400" text-anchor="start" fill="#000">System</text><rect x="457" y="96" width="58" height="28" rx="14" ry="14" stroke="#000" fill="none" stroke-width="1"/><text x="469" y="115" font-size="12" font-weight="400" text-anchor="start" fill="#000">Format</text><rect x="16" y="136" width="358" height="644" rx="8" ry="8" stroke="#000" fill="none" stroke-width="1"/><text x="28" y="168" font-size="14" font-weight="400" text-anchor="start" fill="#000">Series 1</text><line x1="24" y1="174" x2="366" y2="174" stroke="#000" stroke-width="1"/><text x="28" y="204" font-size="14" font-weight="400" text-anchor="start" fill="#000">Series 2</text><line x1="24" y1="210" x2="366" y2="210" stroke="#000" stroke-width="1"/><text x="28" y="240" font-size="14" font-weight="400" text-anchor="start" fill="#000">Series 3</text><line x1="24" y1="246" x2="366" y2="246" stroke="#000" stroke-width="1"/><text x="28" y="276" font-size="14" font-weight="400" text-anchor="start" fill="#000">Series 4</text><line x1="24" y1="282" x2="366" y2="282" stroke="#000" stroke-width="1"/><text x="28" y="312" font-size="14" font-weight="400" text-anchor="start" fill="#000">Series 5</text><line x1="24" y1="318" x2="366" y2="318" stroke="#000" stroke-width="1"/><text x="28" y="348" font-size="14" font-weight="400" text-anchor="start" fill="#000">Series 6</text><line x1="24" y1="354" x2="366" y2="354" stroke="#000" stroke-width="1"/><rect x="16" y="744" width="160" height="48" rx="10" ry="10" stroke="#000" fill="none" stroke-width="1"/><text x="96.0" y="773.0" font-size="15" font-weight="700" text-anchor="middle" fill="#000">+ Add New</text><rect x="208" y="744" width="166" height="48" rx="10" ry="10" stroke="#000" fill="none" stroke-width="1"/><text x="291.0" y="773.0" font-size="15" font-weight="700" text-anchor="middle" fill="#000">Delete</text><g id="tabbar"><line x1="0" y1="761" x2="390" y2="761" stroke="#000" stroke-width="1"/><text x="65" y="801" font-size="12" font-weight="400" text-anchor="middle" fill="#000">Library</text><rect x="55" y="775" width="20" height="20" rx="4" ry="4" stroke="#000" fill="none" stroke-width="1"/><text x="195.0" y="801" font-size="12" font-weight="700" text-anchor="middle" fill="#000">Properties</text><rect x="185.0" y="775" width="20" height="20" rx="4" ry="4" stroke="#000" fill="none" stroke-width="1"/><text x="325" y="801" font-size="12" font-weight="400" text-anchor="middle" fill="#000">Settings</text><rect x="315" y="775" width="20" height="20" rx="4" ry="4" stroke="#000" fill="none" stroke-width="1"/></g></svg>