<svg xmlns="http://www.w3.org/2000/svg" width="390" height="844" viewBox="0 0 390 844" font-family="SF Pro Text, -apple-system, Arial" ><g id="statusbar"><text x="20" y="24" font-size="13" font-weight="600" text-anchor="start" fill="#000">9:41</text><rect x="324" y="10" width="18" height="10" rx="2" ry="2" stroke="#000" fill="none" stroke-width="1"/><rect x="298" y="12" width="14" height="6" rx="1" ry="1" stroke="#000" fill="none" stroke-width="1"/><line x1="278" y1="21" x2="290" y2="21" stroke="#000" stroke-width="1"/></g><g id="navbar"><text x="195.0" y="62" font-size="17" font-weight="600" text-anchor="middle" fill="#000">Settings</text><text x="16" y="62" font-size="16" font-weight="400" text-anchor="start" fill="#000">‹ Back</text><line x1="0" y1="76" x2="390" y2="76" stroke="#000" stroke-width="1"/></g><text x="16" y="116" font-size="15" font-weight="600" text-anchor="start" fill="#000">Backup / Export</text><text x="16" y="134" font-size="12" font-weight="400" text-anchor="start" fill="#333">Export your library</text><text x="366" y="124" font-size="18" font-weight="400" text-anchor="end" fill="#000">›</text><line x1="16" y1="144" x2="374" y2="144" stroke="#000" stroke-width="1"/><text x="16" y="172" font-size="15" font-weight="600" text-anchor="start" fill="#000">Import</text><text x="16" y="190" font-size="12" font-weight="400" text-anchor="start" fill="#333">Import from file</text><text x="366" y="180" font-size="18" font-weight="400" text-anchor="end" fill="#000">›</text><line x1="16" y1="200" x2="374" y2="200" stroke="#000" stroke-width="1"/><text x="16" y="228" font-size="15" font-weight="600" text-anchor="start" fill="#000">Dark Mode</text><text x="16" y="246" font-size="12" font-weight="400" text-anchor="start" fill="#333">Toggle theme</text><text x="366" y="236" font-size="18" font-weight="400" text-anchor="end" fill="#000">›</text><line x1="16" y1="256" x2="374" y2="256" stroke="#000" stroke-width="1"/><text x="16" y="284" font-size="15" font-weight="600" text-anchor="start" fill="#000">Sort Order</text><text x="16" y="302" font-size="12" font-weight="400" text-anchor="start" fill="#333">Title • Platform • Recent</text><text x="366" y="292" font-size="18" font-weight="400" text-anchor="end" fill="#000">›</text><line x1="16" y1="312" x2="374" y2="312" stroke="#000" stroke-width="1"/><g id="tabbar"><line x1="0" y1="761" x2="390" y2="761" stroke="#000" stroke-width="1"/><text x="65" y="801" font-size="12" font-weight="400" text-anchor="middle" fill="#000">Library</text><rect x="55" y="775" width="20" height="20" rx="4" ry="4" stroke="#000" fill="none" stroke-width="1"/><text x="195.0" y="801" font-size="12" font-weight="400" text-anchor="middle" fill="#000">Properties</text><rect x="185.0" y="775" width="20" height="20" rx="4" ry="4" stroke="#000" fill="none" stroke-width="1"/><text x="325" y="801" font-size="12" font-weight="700" text-anchor="middle" fill="#000">Settings</text><rect x="315" y="775" width="20" height="20" rx="4" ry="4" stroke="#000" fill="none" stroke-width="1"/></g></svg>