<svg xmlns="http://www.w3.org/2000/svg" width="390" height="844" viewBox="0 0 390 844" font-family="SF Pro Text, -apple-system, Arial" ><g id="statusbar"><text x="20" y="24" font-size="13" font-weight="600" text-anchor="start" fill="#000">9:41</text><rect x="324" y="10" width="18" height="10" rx="2" ry="2" stroke="#000" fill="none" stroke-width="1"/><rect x="298" y="12" width="14" height="6" rx="1" ry="1" stroke="#000" fill="none" stroke-width="1"/><line x1="278" y1="21" x2="290" y2="21" stroke="#000" stroke-width="1"/></g><g id="navbar"><text x="195.0" y="62" font-size="17" font-weight="600" text-anchor="middle" fill="#000">Library</text><text x="374" y="62" font-size="16" font-weight="600" text-anchor="end" fill="#000">+</text><line x1="0" y1="76" x2="390" y2="76" stroke="#000" stroke-width="1"/></g><rect x="16" y="90" width="358" height="36" rx="8" ry="8" stroke="#000" fill="none" stroke-width="1"/><text x="32" y="113" font-size="13" font-weight="400" text-anchor="start" fill="#555">Search games or properties</text><line x1="16" y1="140" x2="374" y2="140" stroke="#000" stroke-width="1" opacity="0.2"/><text x="16" y="166" font-size="15" font-weight="400" text-anchor="start" fill="#000">Game 1</text><text x="358" y="166" font-size="15" font-weight="400" text-anchor="end" fill="#555">PS2 (Disc) · Action</text><text x="374" y="166" font-size="18" font-weight="400" text-anchor="end" fill="#000">›</text><line x1="16" y1="192" x2="374" y2="192" stroke="#000" stroke-width="1" opacity="0.2"/><text x="16" y="218" font-size="15" font-weight="400" text-anchor="start" fill="#000">Game 2</text><text x="358" y="218" font-size="15" font-weight="400" text-anchor="end" fill="#555">PS2 (Disc) · Action</text><text x="374" y="218" font-size="18" font-weight="400" text-anchor="end" fill="#000">›</text><line x1="16" y1="244" x2="374" y2="244" stroke="#000" stroke-width="1" opacity="0.2"/><text x="16" y="270" font-size="15" font-weight="400" text-anchor="start" fill="#000">Game 3</text><text x="358" y="270" font-size="15" font-weight="400" text-anchor="end" fill="#555">PS2 (Disc) · Action</text><text x="374" y="270" font-size="18" font-weight="400" text-anchor="end" fill="#000">›</text><line x1="16" y1="296" x2="374" y2="296" stroke="#000" stroke-width="1" opacity="0.2"/><text x="16" y="322" font-size="15" font-weight="400" text-anchor="start" fill="#000">Game 4</text><text x="358" y="322" font-size="15" font-weight="400" text-anchor="end" fill="#555">PS2 (Disc) · Action</text><text x="374" y="322" font-size="18" font-weight="400" text-anchor="end" fill="#000">›</text><line x1="16" y1="348" x2="374" y2="348" stroke="#000" stroke-width="1" opacity="0.2"/><text x="16" y="374" font-size="15" font-weight="400" text-anchor="start" fill="#000">Game 5</text><text x="358" y="374" font-size="15" font-weight="400" text-anchor="end" fill="#555">PS2 (Disc) · Action</text><text x="374" y="374" font-size="18" font-weight="400" text-anchor="end" fill="#000">›</text><line x1="16" y1="400" x2="374" y2="400" stroke="#000" stroke-width="1" opacity="0.2"/><text x="16" y="426" font-size="15" font-weight="400" text-anchor="start" fill="#000">Game 6</text><text x="358" y="426" font-size="15" font-weight="400" text-anchor="end" fill="#555">PS2 (Disc) · Action</text><text x="374" y="426" font-size="18" font-weight="400" text-anchor="end" fill="#000">›</text><g id="tabbar"><line x1="0" y1="761" x2="390" y2="761" stroke="#000" stroke-width="1"/><text x="65" y="801" font-size="12" font-weight="700" text-anchor="middle" fill="#000">Library</text><rect x="55" y="775" width="20" height="20" rx="4" ry="4" stroke="#000" fill="none" stroke-width="1"/><text x="195.0" y="801" font-size="12" font-weight="400" text-anchor="middle" fill="#000">Properties</text><rect x="185.0" y="775" width="20" height="20" rx="4" ry="4" stroke="#000" fill="none" stroke-width="1"/><text x="325" y="801" font-size="12" font-weight="400" text-anchor="middle" fill="#000">Settings</text><rect x="315" y="775" width="20" height="20" rx="4" ry="4" stroke="#000" fill="none" stroke-width="1"/></g></svg>