<svg xmlns="http://www.w3.org/2000/svg" width="390" height="844" viewBox="0 0 390 844" font-family="SF Pro Text, -apple-system, Arial" ><g id="statusbar"><text x="20" y="24" font-size="13" font-weight="600" text-anchor="start" fill="#000">9:41</text><rect x="324" y="10" width="18" height="10" rx="2" ry="2" stroke="#000" fill="none" stroke-width="1"/><rect x="298" y="12" width="14" height="6" rx="1" ry="1" stroke="#000" fill="none" stroke-width="1"/><line x1="278" y1="21" x2="290" y2="21" stroke="#000" stroke-width="1"/></g><g id="navbar"><text x="195.0" y="62" font-size="17" font-weight="600" text-anchor="middle" fill="#000">Game Title</text><text x="16" y="62" font-size="16" font-weight="400" text-anchor="start" fill="#000">Back</text><text x="374" y="62" font-size="16" font-weight="600" text-anchor="end" fill="#000">Edit</text><line x1="0" y1="76" x2="390" y2="76" stroke="#000" stroke-width="1"/></g><text x="16" y="92" font-size="11" font-weight="400" text-anchor="start" fill="#666">DETAILS</text><line x1="16" y1="110" x2="374" y2="110" stroke="#000" stroke-width="1" opacity="0.2"/><text x="16" y="136" font-size="15" font-weight="400" text-anchor="start" fill="#000">Series</text><text x="374" y="136" font-size="15" font-weight="400" text-anchor="end" fill="#555">Metal Gear</text><line x1="16" y1="162" x2="374" y2="162" stroke="#000" stroke-width="1" opacity="0.2"/><text x="16" y="188" font-size="15" font-weight="400" text-anchor="start" fill="#000">Genre</text><text x="374" y="188" font-size="15" font-weight="400" text-anchor="end" fill="#555">Action, Stealth</text><line x1="16" y1="214" x2="374" y2="214" stroke="#000" stroke-width="1" opacity="0.2"/><text x="16" y="240" font-size="15" font-weight="400" text-anchor="start" fill="#000">Publisher</text><text x="374" y="240" font-size="15" font-weight="400" text-anchor="end" fill="#555">Konami</text><line x1="16" y1="266" x2="374" y2="266" stroke="#000" stroke-width="1" opacity="0.2"/><text x="16" y="292" font-size="15" font-weight="400" text-anchor="start" fill="#000">Developer</text><text x="374" y="292" font-size="15" font-weight="400" text-anchor="end" fill="#555">Kojima Prod.</text><line x1="16" y1="318" x2="374" y2="318" stroke="#000" stroke-width="1" opacity="0.2"/><text x="16" y="344" font-size="15" font-weight="400" text-anchor="start" fill="#000">Mode</text><text x="374" y="344" font-size="15" font-weight="400" text-anchor="end" fill="#555">Single-player</text><line x1="16" y1="370" x2="374" y2="370" stroke="#000" stroke-width="1" opacity="0.2"/><text x="16" y="396" font-size="15" font-weight="400" text-anchor="start" fill="#000">Platforms</text><text x="374" y="396" font-size="15" font-weight="400" text-anchor="end" fill="#555">PS2 (Disc); PC (Steam)</text><g id="tabbar"><line x1="0" y1="761" x2="390" y2="761" stroke="#000" stroke-width="1"/><text x="65" y="801" font-size="12" font-weight="700" text-anchor="middle" fill="#000">Library</text><rect x="55" y="775" width="20" height="20" rx="4" ry="4" stroke="#000" fill="none" stroke-width="1"/><text x="195.0" y="801" font-size="12" font-weight="400" text-anchor="middle" fill="#000">Properties</text><rect x="185.0" y="775" width="20" height="20" rx="4" ry="4" stroke="#000" fill="none" stroke-width="1"/><text x="325" y="801" font-size="12" font-weight="400" text-anchor="middle" fill="#000">Settings</text><rect x="315" y="775" width="20" height="20" rx="4" ry="4" stroke="#000" fill="none" stroke-width="1"/></g></svg>