<svg xmlns="http://www.w3.org/2000/svg" width="390" height="844" viewBox="0 0 390 844" font-family="SF Pro Text, -apple-system, Arial" ><g id="statusbar"><text x="20" y="24" font-size="13" font-weight="600" text-anchor="start" fill="#000">9:41</text><rect x="324" y="10" width="18" height="10" rx="2" ry="2" stroke="#000" fill="none" stroke-width="1"/><rect x="298" y="12" width="14" height="6" rx="1" ry="1" stroke="#000" fill="none" stroke-width="1"/><line x1="278" y1="21" x2="290" y2="21" stroke="#000" stroke-width="1"/></g><g id="navbar"><text x="16" y="62" font-size="16" font-weight="400" text-anchor="start" fill="#000">Cancel</text><text x="195.0" y="62" font-size="17" font-weight="600" text-anchor="middle" fill="#000">Select Items</text><text x="374" y="62" font-size="16" font-weight="600" text-anchor="end" fill="#000">Done</text><line x1="0" y1="76" x2="390" y2="76" stroke="#000" stroke-width="1"/></g><rect x="16" y="90" width="358" height="36" rx="8" ry="8" stroke="#000" fill="none" stroke-width="1"/><text x="32" y="113" font-size="13" font-weight="400" text-anchor="start" fill="#555">Search items</text><text x="16" y="132" font-size="12" font-weight="400" text-anchor="start" fill="#444">Selected: Action, RPG</text><line x1="0" y1="148" x2="390" y2="148" stroke="#000" stroke-width="1" opacity="0.2"/><line x1="16" y1="150" x2="374" y2="150" stroke="#000" stroke-width="1" opacity="0.2"/><rect x="16" y="162" width="20" height="20" rx="4" ry="4" stroke="#000" fill="#ddd" stroke-width="1"/><text x="46" y="176" font-size="15" font-weight="600" text-anchor="start" fill="#000">Action</text><line x1="16" y1="202" x2="374" y2="202" stroke="#000" stroke-width="1" opacity="0.2"/><rect x="16" y="214" width="20" height="20" rx="4" ry="4" stroke="#000" fill="none" stroke-width="1"/><text x="46" y="228" font-size="15" font-weight="600" text-anchor="start" fill="#000">Adventure</text><line x1="16" y1="254" x2="374" y2="254" stroke="#000" stroke-width="1" opacity="0.2"/><rect x="16" y="266" width="20" height="20" rx="4" ry="4" stroke="#000" fill="#ddd" stroke-width="1"/><text x="46" y="280" font-size="15" font-weight="600" text-anchor="start" fill="#000">RPG</text><line x1="16" y1="306" x2="374" y2="306" stroke="#000" stroke-width="1" opacity="0.2"/><rect x="16" y="318" width="20" height="20" rx="4" ry="4" stroke="#000" fill="none" stroke-width="1"/><text x="46" y="332" font-size="15" font-weight="600" text-anchor="start" fill="#000">Stealth</text><line x1="16" y1="358" x2="374" y2="358" stroke="#000" stroke-width="1" opacity="0.2"/><rect x="16" y="370" width="20" height="20" rx="4" ry="4" stroke="#000" fill="none" stroke-width="1"/><text x="46" y="384" font-size="15" font-weight="600" text-anchor="start" fill="#000">Simulation</text><line x1="16" y1="410" x2="374" y2="410" stroke="#000" stroke-width="1" opacity="0.2"/><rect x="16" y="422" width="20" height="20" rx="4" ry="4" stroke="#000" fill="none" stroke-width="1"/><text x="46" y="436" font-size="15" font-weight="600" text-anchor="start" fill="#000">Strategy</text><line x1="16" y1="462" x2="374" y2="462" stroke="#000" stroke-width="1" opacity="0.2"/><rect x="16" y="474" width="20" height="20" rx="4" ry="4" stroke="#000" fill="none" stroke-width="1"/><text x="46" y="488" font-size="15" font-weight="600" text-anchor="start" fill="#000">Shooter</text><line x1="16" y1="514" x2="374" y2="514" stroke="#000" stroke-width="1" opacity="0.2"/><rect x="16" y="526" width="20" height="20" rx="4" ry="4" stroke="#000" fill="none" stroke-width="1"/><text x="46" y="540" font-size="15" font-weight="600" text-anchor="start" fill="#000">Sports</text><line x1="16" y1="566" x2="374" y2="566" stroke="#000" stroke-width="1" opacity="0.2"/><rect x="16" y="578" width="20" height="20" rx="4" ry="4" stroke="#000" fill="none" stroke-width="1"/><text x="46" y="592" font-size="15" font-weight="600" text-anchor="start" fill="#000">Puzzle</text><line x1="16" y1="618" x2="374" y2="618" stroke="#000" stroke-width="1" opacity="0.2"/><rect x="16" y="630" width="20" height="20" rx="4" ry="4" stroke="#000" fill="none" stroke-width="1"/><text x="46" y="644" font-size="15" font-weight="600" text-anchor="start" fill="#000">Platformer</text></svg>