<svg xmlns="http://www.w3.org/2000/svg" width="390" height="844" viewBox="0 0 390 844" font-family="SF Pro Text, -apple-system, Arial" ><g id="statusbar"><text x="20" y="24" font-size="13" font-weight="600" text-anchor="start" fill="#000">9:41</text><rect x="324" y="10" width="18" height="10" rx="2" ry="2" stroke="#000" fill="none" stroke-width="1"/><rect x="298" y="12" width="14" height="6" rx="1" ry="1" stroke="#000" fill="none" stroke-width="1"/><line x1="278" y1="21" x2="290" y2="21" stroke="#000" stroke-width="1"/></g><g id="navbar"><text x="16" y="62" font-size="16" font-weight="400" text-anchor="start" fill="#000">Back</text><text x="195.0" y="62" font-size="17" font-weight="600" text-anchor="middle" fill="#000">Select Format</text><text x="374" y="62" font-size="16" font-weight="600" text-anchor="end" fill="#000">Done</text><line x1="0" y1="76" x2="390" y2="76" stroke="#000" stroke-width="1"/></g><rect x="16" y="90" width="358" height="36" rx="8" ry="8" stroke="#000" fill="none" stroke-width="1"/><text x="32" y="113" font-size="13" font-weight="400" text-anchor="start" fill="#555">Search formats</text><line x1="16" y1="132" x2="374" y2="132" stroke="#000" stroke-width="1" opacity="0.2"/><rect x="16" y="144" width="20" height="20" rx="4" ry="4" stroke="#000" fill="#ddd" stroke-width="1"/><text x="46" y="158" font-size="15" font-weight="600" text-anchor="start" fill="#000">Disc</text><line x1="16" y1="184" x2="374" y2="184" stroke="#000" stroke-width="1" opacity="0.2"/><rect x="16" y="196" width="20" height="20" rx="4" ry="4" stroke="#000" fill="none" stroke-width="1"/><text x="46" y="210" font-size="15" font-weight="600" text-anchor="start" fill="#000">Cartridge</text><line x1="16" y1="236" x2="374" y2="236" stroke="#000" stroke-width="1" opacity="0.2"/><rect x="16" y="248" width="20" height="20" rx="4" ry="4" stroke="#000" fill="none" stroke-width="1"/><text x="46" y="262" font-size="15" font-weight="600" text-anchor="start" fill="#000">Digital</text><line x1="16" y1="288" x2="374" y2="288" stroke="#000" stroke-width="1" opacity="0.2"/><rect x="16" y="300" width="20" height="20" rx="4" ry="4" stroke="#000" fill="none" stroke-width="1"/><text x="46" y="314" font-size="15" font-weight="600" text-anchor="start" fill="#000">Steam</text><line x1="16" y1="340" x2="374" y2="340" stroke="#000" stroke-width="1" opacity="0.2"/><rect x="16" y="352" width="20" height="20" rx="4" ry="4" stroke="#000" fill="none" stroke-width="1"/><text x="46" y="366" font-size="15" font-weight="600" text-anchor="start" fill="#000">PSN</text><line x1="16" y1="392" x2="374" y2="392" stroke="#000" stroke-width="1" opacity="0.2"/><rect x="16" y="404" width="20" height="20" rx="4" ry="4" stroke="#000" fill="none" stroke-width="1"/><text x="46" y="418" font-size="15" font-weight="600" text-anchor="start" fill="#000">eShop</text><line x1="16" y1="444" x2="374" y2="444" stroke="#000" stroke-width="1" opacity="0.2"/><rect x="16" y="456" width="20" height="20" rx="4" ry="4" stroke="#000" fill="none" stroke-width="1"/><text x="46" y="470" font-size="15" font-weight="600" text-anchor="start" fill="#000">GOG</text><line x1="16" y1="496" x2="374" y2="496" stroke="#000" stroke-width="1" opacity="0.2"/><rect x="16" y="508" width="20" height="20" rx="4" ry="4" stroke="#000" fill="none" stroke-width="1"/><text x="46" y="522" font-size="15" font-weight="600" text-anchor="start" fill="#000">Epic</text></svg>